<?xml version="1.0" encoding="utf-8"?>
<!-- Generator: Adobe Illustrator 25.2.1, SVG Export Plug-In . SVG Version: 6.00 Build 0)  -->
<svg version="1.1" id="Ebene_1" xmlns="http://www.w3.org/2000/svg" xmlns:xlink="http://www.w3.org/1999/xlink" x="0px" y="0px"
	 viewBox="0 0 8192 4915.2" style="enable-background:new 0 0 8192 4915.2;" xml:space="preserve">
<style type="text/css">
	.st0{fill:#FFFFFF;}
</style>
<g id="Layer_2">
	<path class="st0" d="M1661.9,967.1c-884.8,0-1602.1,717.3-1602.1,1602.1s717.3,1602.1,1602.1,1602.1S3264,3454,3264,2569.2
		S2546.7,967.1,1661.9,967.1z M1661.7,3455.9c-65.1,0-128.6-7-189.7-20.3c-25.1,23.5-60.2,56.2-65.3,60.5
		c-32.3,27.2-66,52.7-100.8,76.4c-110.2,74.9-197.5,112.2-216.8,120.2c-16.3,6.7-29.9,11.8-38.8,15.1c6-9,14.3-22.5,22.3-39.9
		c11.3-24.6,15.5-44.3,19.9-58.1c12.3-39,22.8-78.5,31.3-118.4c8.4-39.4,15-79.1,19.8-118.9c2.4-19.9,4.2-39.9,5.7-59.8
		c0.4-6.2,0.5-12.7,0.5-19.3c-226.7-160.6-374.6-425-374.6-723.9c0-489.6,396.9-886.6,886.6-886.6s886.6,396.9,886.6,886.6
		S2151.4,3455.9,1661.7,3455.9z"/>
	<rect x="3828" y="967" class="st0" width="180.9" height="3204.4"/>
</g>
<g id="Layer_3">
	<path class="st0" d="M5019.9,1513.2c0,68.3-20.9,124.9-62.8,169.8c-41.8,44.9-96.3,67.3-163.3,67.3c-65.3,0-118.3-22.4-159.4-67.3
		c-41-44.9-61.5-101.4-61.5-169.8v-100.5c0-68,20.4-124.6,61.3-169.6c40.9-45,94-67.5,159.5-67.5c66.8,0,121.1,22.5,163.1,67.5
		c42,45,63,101.6,63,169.6L5019.9,1513.2L5019.9,1513.2z M4928.8,1412c0-46.5-12.1-84.8-36.4-114.7c-24.2-29.9-57.1-44.9-98.6-44.9
		c-40.2,0-71.9,15-95,44.9c-23.1,29.9-34.7,68.1-34.7,114.7v101.3c0,47,11.6,85.6,34.9,115.7c23.2,30.1,54.9,45.1,94.8,45.1
		c41.7,0,74.7-15,98.8-44.9c24.1-29.9,36.2-68.5,36.2-115.9V1412z"/>
	<path class="st0" d="M5189.7,1327.2l5.3,59.8c13.2-21.2,29.9-37.8,50.1-49.7s42.8-17.9,68-17.9c42.3,0,75.1,13.3,98.8,39.9
		s35.4,68.1,35.4,124.7v258.2h-91.1v-257.4c0-32.3-6.1-55.1-18.4-68.7c-12.3-13.6-30.7-20.3-55.5-20.3c-19.5,0-36.4,3.8-50.6,11.3
		c-14.2,7.6-25.6,18-34.1,31.3v303.9h-91v-415.1L5189.7,1327.2L5189.7,1327.2z"/>
	<path class="st0" d="M5639.3,1742.3h-91.1v-598.5h91.1L5639.3,1742.3L5639.3,1742.3z"/>
	<path class="st0" d="M5838.4,1225.6h-91.1v-81.7h91.1V1225.6z M5838.4,1742.3h-91.1v-415.1h91.1V1742.3z"/>
	<path class="st0" d="M6022.8,1327.2l5.3,59.8c13.2-21.2,29.9-37.8,50.1-49.7c20.1-11.9,42.8-17.9,68-17.9
		c42.3,0,75.1,13.3,98.8,39.9s35.4,68.1,35.4,124.7v258.2h-91.1v-257.4c0-32.3-6.1-55.1-18.4-68.7c-12.3-13.6-30.7-20.3-55.5-20.3
		c-19.5,0-36.4,3.8-50.6,11.3c-14.2,7.6-25.6,18-34.1,31.3v303.9h-91.1v-415.1L6022.8,1327.2L6022.8,1327.2z"/>
	<path class="st0" d="M6547.3,1750.3c-59.2,0-105.5-19.1-138.9-57.3c-33.4-38.2-50.1-87.8-50.1-148.7V1529
		c0-60.9,16.7-111,50.1-150.6c33.4-39.5,76.4-59.1,129.2-58.9c54.5,0,95.7,17.2,123.7,51.6c28,34.4,42,80.4,42,137.9v50.2h-250.8
		l-0.8,1.9c1,34,9.8,61.6,26.2,82.9c16.5,21.2,41.4,31.8,74.6,31.8c24.7,0,46.2-3.1,64.3-9.2c18.1-6.1,34.9-15,50.5-26.5l29.6,61
		c-15.5,13.8-36,25.4-61.5,34.9C6609.9,1745.6,6580.6,1750.3,6547.3,1750.3z M6537.6,1394.3c-23.8,0-42.8,8.8-57,26.3
		s-23.1,40.3-26.6,68.5l0.8,1.9h158.6v-7.3c0-26.6-6.1-48.1-18.2-64.6S6563.8,1394.3,6537.6,1394.3z"/>
	<path class="st0" d="M4995.6,3759.3c-15,21.7-39,41.1-71.8,58.1c-32.9,17-75.3,25.5-127.3,25.5c-64.5,0-117.6-21.3-159.2-63.9
		c-41.6-42.6-62.4-97.6-62.4-165.1v-116.6c0-67.5,20.1-122.5,60.3-165.1c40.2-42.6,92-63.9,155.2-63.9c63.5,0,113,16.4,148.5,49.1
		c35.5,32.7,52.7,75.4,51.7,128.1l-1.2,2.3h-86.6c0-31.4-9.5-56.8-28.7-75.9c-19.1-19.2-46.5-28.8-82.3-28.8
		c-37.7,0-68.2,14.4-91.3,43.3c-23.1,28.9-34.7,65.6-34.7,110.1V3614c0,45,12.1,82,36.2,111c24.1,29,55.5,43.5,94.3,43.5
		c29.2,0,52.4-3.4,69.4-10.2c17-6.8,29.9-15,38.6-24.7v-115.5h-114.3v-69.8h205.5V3759.3z"/>
	<path class="st0" d="M5299.6,3503.8l-39-1.6c-17.7,0-32.5,3.8-44.4,11.5c-11.8,7.7-21,18.6-27.6,32.6v288.5h-91.1v-415.1h83.2
		l6,60.2c10.2-21.2,23.4-37.9,39.5-49.9c16.1-12,34.7-18,55.7-18c5.5,0,10.6,0.5,15.4,1.3c4.7,0.9,9.1,2,13.1,3.2L5299.6,3503.8z"/>
	<path class="st0" d="M5342.7,3623.5c0-61.9,16.5-112.6,49.6-152.1c33.1-39.5,78.4-59.2,135.9-59.2c58.3,0,103.9,19.8,137,59.2
		c33.1,39.5,49.6,90.2,49.6,152.1v8c0,62.4-16.6,113.2-49.6,152.5c-33.1,39.2-78.5,58.9-136.3,58.9c-58,0-103.5-19.7-136.6-59.1
		s-49.6-90.2-49.6-152.3L5342.7,3623.5L5342.7,3623.5z M5433.8,3631.6c0,40.7,7.7,73.6,23.2,99c15.5,25.3,39.5,38,72,38
		c31.7,0,55.5-12.7,71.4-38.1c15.9-25.4,23.8-58.4,23.8-98.8v-8c0-39.7-7.9-72.3-23.8-98c-15.9-25.7-39.9-38.6-72.2-38.6
		c-31.7,0-55.4,12.8-71,38.6s-23.4,58.4-23.4,98L5433.8,3631.6L5433.8,3631.6z"/>
	<path class="st0" d="M6047.5,3773.5c-12.5,22.3-28.6,39.4-48.2,51.4s-42.3,18-68,18c-43.5,0-77.5-14.6-102-43.9
		c-24.5-29.3-36.8-74.7-36.8-136.4v-242.8h90.7v243.6c0,39.7,5.6,66.8,16.9,81.5s28.7,22.1,52.5,22.1c22,0,40.4-4,55.3-12.1
		c14.9-8,26.5-19.8,35.1-35.1v-300h91.1v415.1h-78.4L6047.5,3773.5z"/>
	<path class="st0" d="M6584.8,3641.2c0,60.3-13.9,109.1-41.6,146.2c-27.7,37.1-66.4,55.6-115.8,55.6c-23,0-43.3-4.2-61.1-12.7
		c-17.7-8.4-33-20.9-45.7-37.2v201.4h-91.1v-574.6h76.9l9,52.2c13-19.4,28.7-34.3,47-44.5c18.4-10.2,39.6-15.3,63.9-15.3
		c50,0,88.9,20.3,116.8,60.8c27.9,40.5,41.8,93.9,41.8,160.2L6584.8,3641.2L6584.8,3641.2z M6494,3633.1c0-42.5-7.8-77.2-23.4-104.2
		c-15.6-27-38.9-40.5-69.9-40.5c-19,0-35.1,4.2-48.4,12.5c-13.2,8.3-23.9,19.9-31.8,34.7v187.6c8,14.6,18.6,25.8,31.8,33.6
		c13.2,7.8,29.6,11.7,49.1,11.7c31,0,54.2-11.7,69.5-35.1c15.4-23.4,23.1-54.2,23.1-92.2V3633.1z"/>
	<path class="st0" d="M4867.3,2676.7h2.3l157.8-429.6h116.2v558.5h-91.1v-401.2l-2.3-0.4L4900,2805.6h-62.6l-152.9-409.3l-2.3,0.8
		v408.6h-91.1V2247h119.5L4867.3,2676.7z"/>
	<path class="st0" d="M5493.8,2805.6c-3.2-10.5-6-20.7-8.1-30.7c-2.1-10-3.6-19.9-4.3-29.9c-12.3,19.4-28.6,35.7-49.1,48.9
		c-20.5,13.2-43.3,19.8-68.6,19.8c-42.3,0-74.7-11.1-97.3-33.4s-33.9-52.8-33.9-91.7c0-40.2,15.5-71.4,46.5-93.8
		c31-22.4,74.6-33.6,130.9-33.6h70.9v-36.4c0-21.7-6.2-38.7-18.6-51c-12.4-12.3-30.3-18.4-53.8-18.4c-20.8,0-37.2,5.1-49.5,15.1
		c-12.3,10.1-18.4,23.2-18.4,39.3l-87.7,0.4l-0.4-2.3c-1.7-32.7,12.5-61.7,42.9-87.1c30.3-25.3,69.9-38,118.7-38
		c47.2,0,85.4,12.3,114.3,36.8s43.5,59.8,43.5,105.9V2710c0,17.2,1.1,33.6,3.4,49.3s5.9,31.2,10.9,46.2L5493.8,2805.6L5493.8,2805.6
		z M5382.5,2738.8c22.7,0,43.3-5.9,61.7-17.6c18.4-11.8,30.6-25.2,36.5-40.3v-61.4h-72.4c-26.5,0-47.2,6.7-62.2,20.2
		c-15,13.5-22.5,29.2-22.5,47.4c0,15.8,5,28.4,15.2,37.8C5348.9,2734.2,5363.5,2738.8,5382.5,2738.8z"/>
	<path class="st0" d="M5869.1,2474.5l-39-1.6c-17.7,0-32.5,3.8-44.4,11.5c-11.8,7.7-21,18.6-27.6,32.6v288.5H5667v-415.1h83.2
		l6,60.2c10.2-21.2,23.4-37.9,39.5-49.9c16.1-12,34.7-18,55.7-18c5.5,0,10.6,0.5,15.4,1.3s9.1,2,13.1,3.2L5869.1,2474.5z"/>
	<path class="st0" d="M6061.4,2624.1h-33.8v181.4h-90.7v-598.5h90.7v342.2h31.1l109.9-158.8h106.9l-139.1,191l154.4,224.1h-106.1
		L6061.4,2624.1z"/>
	<path class="st0" d="M6503,2813.6c-59.2,0-105.5-19.1-138.9-57.3c-33.4-38.2-50.1-87.8-50.1-148.7v-15.3
		c0-60.9,16.7-111,50.1-150.6s76.4-59.1,129.2-58.9c54.5,0,95.7,17.2,123.7,51.6s42,80.4,42,137.9v50.2h-250.8l-0.8,1.9
		c1,34,9.8,61.6,26.2,82.9c16.5,21.2,41.4,31.8,74.6,31.8c24.7,0,46.2-3.1,64.3-9.2c18.1-6.1,34.9-15,50.5-26.5l29.6,61
		c-15.5,13.8-36,25.4-61.5,34.9C6565.6,2808.9,6536.3,2813.6,6503,2813.6z M6493.3,2457.6c-23.8,0-42.8,8.8-57,26.3
		c-14.2,17.5-23.1,40.3-26.6,68.5l0.8,1.9h158.6v-7.3c0-26.6-6.1-48.1-18.2-64.6C6538.8,2465.9,6519.5,2457.6,6493.3,2457.6z"/>
	<path class="st0" d="M6849.5,2289.6v100.9h72.7v69.1h-72.7V2689c0,17.1,3.6,29.4,10.9,36.6c7.2,7.3,16.9,10.9,28.9,10.9
		c5,0,9.9-0.5,14.6-1.3s9.2-2.1,13.5-3.6l9.8,68.3c-7.7,4.3-16.9,7.7-27.6,10.2s-21.7,3.6-33.2,3.6c-33.5,0-59.8-10.1-78.9-30.1
		c-19.1-20.1-28.7-51.6-28.7-94.6v-229.4H6697v-69.1h61.8v-100.9L6849.5,2289.6L6849.5,2289.6z"/>
	<path class="st0" d="M7092.8,2288.8h-91.1v-81.7h91.1V2288.8z M7092.8,2805.6h-91.1v-415.1h91.1V2805.6z"/>
	<path class="st0" d="M7277.2,2390.5l5.3,59.8c13.2-21.2,29.9-37.8,50.1-49.7c20.1-11.9,42.8-17.9,68-17.9
		c42.3,0,75.1,13.3,98.8,39.9s35.4,68.1,35.4,124.7v258.2h-91.1v-257.4c0-32.3-6.1-55.1-18.4-68.7c-12.3-13.6-30.7-20.3-55.5-20.3
		c-19.5,0-36.4,3.8-50.6,11.3c-14.2,7.6-25.6,18-34.1,31.3v303.9H7194v-415.1H7277.2z"/>
	<path class="st0" d="M7615.4,2603.8c0-66.2,13.9-119.6,41.6-160.2s66.8-60.8,117-60.8c24.2,0,45.5,5.3,63.9,15.9
		c18.4,10.6,33.9,25.9,46.7,45.8l9-54.1h75.7v415.1c0,53.5-16.1,94.7-48.4,123.9c-32.3,29.1-78,43.8-137.2,43.8
		c-19.8,0-41-2.9-63.9-8.6c-22.9-5.8-43.5-13.4-62-22.8l14.6-73.3c15.5,7.9,32.8,14.1,51.9,18.6c19.1,4.5,38.7,6.7,58.7,6.7
		c33,0,57.1-7.2,72.4-21.7c15.3-14.4,22.9-36.6,22.9-66.6V2763c-12.8,16.6-27.8,29.2-45.2,37.8c-17.3,8.6-37.3,12.8-59.8,12.8
		c-49.8,0-88.5-18.6-116.2-55.6c-27.7-37.1-41.6-85.8-41.6-146.2L7615.4,2603.8L7615.4,2603.8z M7706.1,2611.8
		c0,38.4,7.2,69,21.7,91.7c14.5,22.8,37.3,34.2,68.6,34.2c19.5,0,36-4.2,49.3-12.5c13.4-8.3,24.2-20.3,32.4-35.9v-181.8
		c-8.5-15.1-19.4-26.9-32.8-35.5c-13.4-8.6-29.4-12.8-48.1-12.8c-31.3,0-54.3,13.4-69,40.1c-14.7,26.7-22.1,61.6-22.1,104.6
		L7706.1,2611.8L7706.1,2611.8z"/>
</g>
</svg>
